<svg width="800" height="1000" viewBox="0 0 800 1000" xmlns="http://www.w3.org/2000/svg">
  <defs>
    <linearGradient id="duskGrad" x1="0%" y1="0%" x2="0%" y2="100%">
      <stop offset="0%" stop-color="#11100F"/>
      <stop offset="35%" stop-color="#3A242B"/>
      <stop offset="65%" stop-color="#7C3A27"/>
      <stop offset="100%" stop-color="#B08A4A"/>
    </linearGradient>
  </defs>
  <rect width="800" height="1000" fill="url(#duskGrad)"/>
  <!-- Temple spire silhouettes -->
  <path d="M 120 700 L 160 520 L 200 700 Z" fill="#11100F"/>
  <path d="M 220 700 L 280 440 L 340 700 Z" fill="#11100F"/>
  <path d="M 360 700 L 430 380 L 500 700 Z" fill="#11100F"/>
  <path d="M 520 700 L 570 480 L 620 700 Z" fill="#11100F"/>
  <path d="M 640 700 L 680 560 L 720 700 Z" fill="#11100F"/>
  <!-- River steps -->
  <rect x="0" y="700" width="800" height="300" fill="#191614"/>
  <g fill="#292622">
    <rect x="40" y="720" width="720" height="15" rx="2"/>
    <rect x="80" y="750" width="640" height="15" rx="2"/>
    <rect x="120" y="780" width="560" height="15" rx="2"/>
    <rect x="160" y="810" width="480" height="15" rx="2"/>
  </g>
  <!-- Diya flame floating on water -->
  <ellipse cx="400" cy="890" rx="35" ry="12" fill="#B08A4A" opacity="0.6"/>
  <circle cx="400" cy="880" r="10" fill="#F4EFE7"/>
  <circle cx="400" cy="876" r="5" fill="#FFC72C"/>
  <rect x="20" y="20" width="760" height="960" fill="none" stroke="rgba(244,239,231,0.15)" stroke-width="1"/>
</svg>